:version 1.10
:name ASF
:units
  mass 1
  length 1
  angle deg
:documentation
  ASF file generated by Kaydara
:root
  axis xyz
  order  tx ty tz rx ry rz
  position 0 0 0
  orientation 0 0 0
:bonedata
  begin
    id 1
    name SpineDummy
    direction 0.999998 -0.00179978 1.38929e-006
    length 3.60008
    axis 0 0 0 xyz
  end
  begin
    id 2
    name Spine
    direction 0.964365 0.262802 0.0305839
    length 8.13928
    axis 1.33928 -1.75354 15.2838 xyz
    dof rx ry rz
  end
  begin
    id 3
    name Spine1
    direction 0.811168 0.572065 0.12144
    length 7.14954
    axis 2.2224 -6.9761 35.2157 xyz
    dof rx ry rz
  end
  begin
    id 4
    name Neck
    direction 0 0 0
    length 0
    axis 2.2224 -6.9761 35.2157 xyz
    dof rx ry rz
  end
  begin
    id 5
    name HeadDummy
    direction 0.810939 0.572387 0.121455
    length 3.55534
    axis 2.2224 -6.9761 35.2157 xyz
  end
  begin
    id 6
    name Head
    direction 0.998226 -0.000232542 0.0595419
    length 7.35666
    axis -3.03688 -3.41352 -0.0133467 xyz
    dof rx ry rz
  end
  begin
    id 7
    name R_ClavicleDummy
    direction 0.531669 -0.194489 -0.824319
    length 2.49392
    axis 2.2224 -6.9761 35.2157 xyz
  end
  begin
    id 8
    name R_Clavicle
    direction -0.155119 0.0480802 -0.986725
    length 4.485
    axis -54.2764 80.6538 162.779 xyz
    dof rx ry rz
  end
  begin
    id 9
    name R_UpperArm
    direction -0.955567 0.200068 -0.216484
    length 10.1122
    axis -72.9943 12.5026 168.175 xyz
    dof rx ry rz
  end
  begin
    id 10
    name R_Forearm
    direction -0.61433 0.385743 0.688332
    length 9.39148
    axis -117.015 -43.4982 147.875 xyz
    dof rx ry rz
  end
  begin
    id 11
    name R_Hand
    direction -0.699429 0.0170333 0.714499
    length 3.66324
    axis -45.0303 -36.7097 175.478 xyz
    dof rx ry rz
  end
  begin
    id 12
    name L_ClavicleDummy
    direction 0.40287 -0.36502 0.839319
    length 2.49392
    axis 2.2224 -6.9761 35.2157 xyz
  end
  begin
    id 13
    name L_Clavicle
    direction -0.231271 -0.0726419 0.970174
    length 4.485
    axis 18.4357 -75.9711 -162.563 xyz
    dof rx ry rz
  end
  begin
    id 14
    name L_UpperArm
    direction -0.917494 0.144359 0.370629
    length 10.1122
    axis 56.0417 -21.7544 171.058 xyz
    dof rx ry rz
  end
  begin
    id 15
    name L_Forearm
    direction -0.496786 0.615074 -0.612281
    length 9.39148
    axis 89.8094 37.7546 128.927 xyz
    dof rx ry rz
  end
  begin
    id 16
    name L_Hand
    direction -0.409932 0.64962 -0.640274
    length 3.66324
    axis -0.424369 32.133 128.52 xyz
    dof rx ry rz
  end
  begin
    id 17
    name L_ThighDummy
    direction -1.84081e-006 1.87549e-006 1
    length 3.13049
    axis 0 0 0 xyz
  end
  begin
    id 18
    name L_Thigh
    direction -0.947739 0.307978 0.083308
    length 17.9961
    axis 173.219 -4.77873 161.998 xyz
    dof rx ry rz
  end
  begin
    id 19
    name L_Calf
    direction -0.728814 -0.684427 0.0197583
    length 13.3367
    axis 167.331 -1.13214 -136.799 xyz
    dof rx ry rz
  end
  begin
    id 20
    name L_Foot
    direction -0.9028 0.418719 0.0981191
    length 5.8674
    axis 163.436 11.5135 -155.37 xyz
    dof rx ry rz
  end
  begin
    id 21
    name L_Toe0
    direction -0.35341 0.886259 0.299411
    length 4.75286
    axis 169.316 -17.4222 111.74 xyz
    dof rx ry rz
  end
  begin
    id 22
    name R_ThighDummy
    direction 9.32778e-007 -8.82053e-007 -1
    length 3.13049
    axis 0 0 0 xyz
  end
  begin
    id 23
    name R_Thigh
    direction -0.925064 0.37528 -0.0585023
    length 17.9961
    axis -178.698 3.35385 157.919 xyz
    dof rx ry rz
  end
  begin
    id 24
    name R_Calf
    direction -0.68969 -0.718776 -0.0876886
    length 13.3367
    axis -160.504 5.03065 -133.817 xyz
    dof rx ry rz
  end
  begin
    id 25
    name R_Foot
    direction -0.857405 0.418858 -0.299022
    length 5.8674
    axis -161.328 4.38911 -154.413 xyz
    dof rx ry rz
  end
  begin
    id 26
    name R_Toe0
    direction -0.100745 0.952789 -0.286433
    length 4.75286
    axis 171.683 16.6445 96.0359 xyz
    dof rx ry rz
  end
:hierarchy
  begin
    root SpineDummy L_ThighDummy R_ThighDummy
    SpineDummy Spine
    Spine Spine1
    Spine1 Neck
    Neck HeadDummy R_ClavicleDummy L_ClavicleDummy
    HeadDummy Head
    R_ClavicleDummy R_Clavicle
    R_Clavicle R_UpperArm
    R_UpperArm R_Forearm
    R_Forearm R_Hand
    L_ClavicleDummy L_Clavicle
    L_Clavicle L_UpperArm
    L_UpperArm L_Forearm
    L_Forearm L_Hand
    L_ThighDummy L_Thigh
    L_Thigh L_Calf
    L_Calf L_Foot
    L_Foot L_Toe0
    R_ThighDummy R_Thigh
    R_Thigh R_Calf
    R_Calf R_Foot
    R_Foot R_Toe0
  end

:SAMPLES-PER-SECOND 30
:FULLY-SPECIFIED
:DEGREES
379
root  -2.75373 26.3628 26.0855 -103.727 -1.09266 86.6405
Spine  -10.9528 -13.2043 6.11016
Spine1  -10.6322 25.8774 -10.5879
Neck  3.97569e-016 0 -2.38542e-015
Head  47.2109 9.68393 -3.06261
R_Clavicle  1.14806 -2.45652 6.27122
R_UpperArm  82.857 14.6805 42.0223
R_Forearm  39.9737 44.2404 -53.9765
R_Hand  -0.799472 -4.07813 -1.94633
L_Clavicle  -0.596518 9.66585 5.76262
L_UpperArm  -39.1413 -5.5065 46.9414
L_Forearm  -3.39843 37.278 62.552
L_Hand  -0.854282 3.61145 -10.4236
L_Thigh  7.51958 15.5634 -25.4544
L_Calf  13.1266 -1.2001 8.53923
L_Foot  1.80144 -10.3552 36.4281
L_Toe0  1.15956 0.00503317 -5.6543
R_Thigh  -8.15828 -12.6614 19.7701
R_Calf  -1.77178 -2.957 -9.11354
R_Foot  6.72686 19.667 11.323
R_Toe0  -1.68707 -0.275357 -17.416
380
root  -1.63795 26.854 25.6818 -97.1538 -1.97765 86.2019
Spine  -10.2971 -12.9058 3.87362
Spine1  -10.1451 21.6221 -11.3722
Neck  3.97569e-016 0 -2.38542e-015
Head  38.3256 9.78348 1.5414
R_Clavicle  1.29525 0.248592 6.51401
R_UpperArm  84.8359 25.2001 40.5228
R_Forearm  26.5821 45.5421 -57.8158
R_Hand  -0.34349 -1.69811 -0.504223
L_Clavicle  -0.537457 9.08839 4.6093
L_UpperArm  -41.5418 -5.19597 44.4564
L_Forearm  -3.89584 33.7042 54.9896
L_Hand  -0.845597 6.39232 -7.94192
L_Thigh  10.2713 19.0895 -22.8963
L_Calf  17.7503 -1.32513 9.44858
L_Foot  0.705793 -10.1028 27.4474
L_Toe0  4.45568 -0.304975 -1.80223
R_Thigh  -4.12478 -14.2208 14.7633
R_Calf  0.18952 -3.19749 -9.86386
R_Foot  6.42757 18.6869 13.0106
R_Toe0  -1.22639 -0.236236 -15.9554
381
root  -0.437192 27.5579 25.2282 -89.2722 -2.68135 85.5245
Spine  -8.63493 -10.2464 2.75493
Spine1  -8.82423 13.7346 -14.2187
Neck  3.97569e-016 0 -2.38542e-015
Head  25.2286 9.48403 6.53031
R_Clavicle  1.64964 4.53504 7.62113
R_UpperArm  75.6531 36.6518 34.3019
R_Forearm  11.5895 44.8521 -55.7196
R_Hand  0.755592 1.87813 5.46376
L_Clavicle  -0.36436 8.38815 1.90458
L_UpperArm  -43.0065 -8.25926 42.9157
L_Forearm  0.490376 28.5571 41.21
L_Hand  -0.92062 6.6431 -8.39081
L_Thigh  12.7497 22.7155 -17.0514
L_Calf  24.9722 -1.22561 8.68738
L_Foot  -0.37283 -9.02993 15.3413
L_Toe0  4.46134 -0.647187 2.05474
R_Thigh  -0.191923 -15.8208 9.5854
R_Calf  -0.501115 -3.38318 -10.4686
R_Foot  6.98291 20.5887 9.55237
R_Toe0  -0.835903 -0.106181 -8.05793
382
root  0.642304 28.2081 24.7999 -81.972 -4.31313 84.9748
Spine  -5.50005 -3.12808 3.44218
Spine1  -5.53316 0.282402 -16.0452
Neck  3.97569e-016 0 -2.38542e-015
Head  9.34507 9.6465 8.8225
R_Clavicle  1.65339 11.647 6.01253
R_UpperArm  59.5565 41.6024 23.086
R_Forearm  -3.37907 41.8523 -48.0884
R_Hand  2.35772 3.86864 16.1554
L_Clavicle  -0.10049 6.18078 -0.847846
L_UpperArm  -41.3393 -14.5018 37.6288
L_Forearm  6.00307 23.2648 29.5934
L_Hand  -1.04606 5.64485 -10.4357
L_Thigh  12.5662 25.2549 -10.1214
L_Calf  25.8344 -0.699476 4.8102
L_Foot  -1.65256 -8.5567 4.05008
L_Toe0  1.64575 -0.145219 -1.33252
R_Thigh  2.17307 -17.1604 5.24256
R_Calf  -6.11533 -3.92874 -12.2301
R_Foot  5.99123 19.7256 1.74049
R_Toe0  -0.619983 0.52536 3.94074
383
root  1.5722 28.7352 24.3435 -75.4948 -6.25322 84.2661
Spine  -1.21623 5.5313 4.4901
Spine1  -1.00513 -14.6373 -14.632
Neck  3.97569e-016 0 -2.38542e-015
Head  -7.41486 9.63331 8.15599
R_Clavicle  2.09018 18.7573 7.05649
R_UpperArm  41.3382 42.7768 11.8592
R_Forearm  -12.7106 33.4909 -33.3667
R_Hand  2.80749 3.28174 22.9407
L_Clavicle  0.183947 3.2287 -2.40604
L_UpperArm  -37.4184 -21.5046 26.6443
L_Forearm  8.82502 17.1536 20.8755
L_Hand  -1.09572 4.87804 -11.7751
L_Thigh  11.076 26.0411 -4.07784
L_Calf  16.9338 -0.187088 1.07073
L_Foot  -2.56524 -8.7421 -2.92514
L_Toe0  0.387375 0.0531858 -6.57161
R_Thigh  1.382 -18.2741 1.07757
R_Calf  -18.025 -4.33701 -13.5589
R_Foot  5.14942 18.5602 -6.18755
R_Toe0  -3.4377 2.51441 12.6274
384
root  2.46754 29.0723 23.7873 -68.3255 -6.90395 83.2031
Spine  2.57121 10.466 5.5903
Spine1  2.60146 -24.6027 -12.6572
Neck  3.97569e-016 0 -2.38542e-015
Head  -22.8977 8.933 6.70632
R_Clavicle  1.5019 23.4088 4.92649
R_UpperArm  22.5286 42.3061 1.77366
R_Forearm  -13.7074 16.3956 -14.1768
R_Hand  2.41609 3.23037 19.092
L_Clavicle  0.267246 1.6978 -2.48093
L_UpperArm  -31.1105 -27.4069 12.9459
L_Forearm  9.91509 10.731 12.6329
L_Hand  -1.03321 4.83768 -11.1277
L_Thigh  11.0704 24.7205 1.47043
L_Calf  11.9756 -0.181454 0.990808
L_Foot  -3.03804 -10.3709 -3.62105
L_Toe0  0.505156 0.034446 -6.1361
R_Thigh  -0.604398 -18.4935 -3.86483
R_Calf  -25.6988 -4.18503 -13.0634
R_Foot  3.82531 13.3248 -6.94929
R_Toe0  -3.71509 2.17378 8.40136
385
root  3.38597 29.1022 23.1636 -59.2193 -5.43934 81.9249
Spine  4.82614 11.1479 6.69134
Spine1  4.78936 -29.5972 -12.2803
Neck  3.97569e-016 0 -2.38542e-015
Head  -36.6827 7.5424 5.70055
R_Clavicle  0.535484 26.8562 2.4268
R_UpperArm  4.56783 39.3613 -5.27201
R_Forearm  -9.45146 -5.70367 5.14326
R_Hand  1.83733 4.20906 10.4495
L_Clavicle  0.154038 2.11542 -1.74411
L_UpperArm  -21.5543 -31.7629 -1.22386
L_Forearm  11.3009 4.84614 5.60876
L_Hand  -0.943209 4.99897 -9.99411
L_Thigh  12.0904 20.699 7.89539
L_Calf  18.5644 -0.405753 2.62881
L_Foot  -4.39475 -16.6585 -2.66476
L_Toe0  0.412671 0.0407613 -6.21882
R_Thigh  -1.17365 -19.9071 -8.88935
R_Calf  -22.0164 -3.53843 -11.0153
R_Foot  3.52662 11.9724 -3.33089
R_Toe0  0.891044 -0.00751598 1.3662
386
root  4.22282 28.8135 22.5697 -48.6378 -2.62717 81.4702
Spine  5.94874 10.9515 7.66908
Spine1  5.82179 -32.6251 -12.3804
Neck  3.97569e-016 0 -2.38542e-015
Head  -48.9931 5.29763 4.8719
R_Clavicle  -1.02743 27.2374 -1.32164
R_UpperArm  -3.38334 36.3415 -7.13503
R_Forearm  -11.4436 -28.1439 21.8955
R_Hand  1.51482 4.90863 5.71709
L_Clavicle  0.0424063 3.5606 -1.27929
L_UpperArm  -11.9317 -34.1899 -14.616
L_Forearm  12.871 0.0297757 0.0229956
L_Hand  -0.909048 5.05826 -9.57297
L_Thigh  10.401 14.5313 14.6638
L_Calf  23.7182 -0.422372 2.7792
L_Foot  -5.43078 -20.5462 -4.81876
L_Toe0  1.39658 -0.0265807 -5.33873
R_Thigh  0.598577 -22.2618 -13.3033
R_Calf  -6.89557 -2.3938 -7.4462
R_Foot  2.93626 9.96028 -0.0843908
R_Toe0  10.639 -2.37407 -7.41996
387
root  4.85204 28.2729 21.979 -37.8775 -0.282331 82.1709
Spine  6.60924 11.8133 8.11303
Spine1  5.88766 -34.2926 -11.1924
Neck  3.97569e-016 0 -2.38542e-015
Head  -58.4989 1.91323 3.71967
R_Clavicle  -2.00104 23.9892 -4.02861
R_UpperArm  24.6357 35.1212 -4.07157
R_Forearm  -41.8446 -50.5424 31.2613
R_Hand  1.45596 5.12266 4.70119
L_Clavicle  -0.021334 4.53726 -1.02735
L_UpperArm  -5.79598 -35.1644 -25.4394
L_Forearm  12.9197 -4.06 -4.71412
L_Hand  -0.876723 5.07342 -9.21313
L_Thigh  6.41754 8.42362 19.5699
L_Calf  17.8488 -0.185841 1.0772
L_Foot  -3.83328 -13.418 -5.9857
L_Toe0  3.95101 -0.199489 -3.05366
R_Thigh  1.79092 -23.4649 -18.0728
R_Calf  11.3297 -0.421255 -1.31211
R_Foot  0.891619 3.08148 -0.396113
R_Toe0  12.0301 -2.28658 -9.22255
388
root  5.32419 27.4077 21.3334 -28.2027 0.962841 82.4228
Spine  6.6298 11.8825 8.73566
Spine1  5.21335 -33.3288 -9.86822
Neck  3.97569e-016 0 -2.38542e-015
Head  -63.2606 -2.12036 3.1982
R_Clavicle  -2.24767 20.6792 -5.13268
R_UpperArm  31.3916 34.5482 1.10973
R_Forearm  -50.9967 -50.4256 38.3373
R_Hand  1.17115 4.30399 3.75143
L_Clavicle  -0.119663 4.65621 -0.0896562
L_UpperArm  -3.51432 -36.6078 -32.4946
L_Forearm  11.2529 -7.21133 -8.41448
L_Hand  -0.837042 5.41731 -8.50438
L_Thigh  5.18884 3.61017 22.4077
L_Calf  9.28969 0.0619514 -0.716812
L_Foot  -0.805652 -2.12668 -1.47704
L_Toe0  0.32199 0.0525011 -6.30079
R_Thigh  0.0326449 -23.3381 -24.6915
R_Calf  21.3937 1.29879 4.08261
R_Foot  1.29627 4.68233 2.35581
R_Toe0  7.59475 -1.0988 -11.3795
389
root  5.79618 26.3973 20.6774 -20.7956 1.96874 80.917
Spine  5.64334 9.69549 9.77738
Spine1  3.87459 -30.0534 -8.7376
Neck  3.97569e-016 0 -2.38542e-015
Head  -63.5645 -5.17588 4.02864
R_Clavicle  -2.28165 19.7314 -5.38971
R_UpperArm  32.0421 34.2797 4.00936
R_Forearm  -47.4558 -50.1062 38.0955
R_Hand  0.710979 3.07208 1.62155
L_Clavicle  -0.266513 3.61131 1.52818
L_UpperArm  -4.81742 -39.5639 -35.4242
L_Forearm  9.81945 -9.19071 -10.7804
L_Hand  -0.83058 6.04445 -7.97229
L_Thigh  7.41684 -0.0490934 24.3923
L_Calf  7.20843 0.292932 -2.37879
L_Foot  0.445648 0.965317 1.00674
L_Toe0  0.483786 0.0346333 -6.15501
R_Thigh  -1.10034 -23.792 -32.8053
R_Calf  17.2532 2.03008 6.37546
R_Foot  6.82447 19.6498 10.9535
R_Toe0  6.47502 -0.884589 -12.6658
